solid ascii
  facet normal -0.000000e+00 -1.000000e+00 0.000000e+00
    outer loop
      vertex   3.740000e+01 6.180000e+01 2.400000e+00
      vertex   3.740000e+01 6.180000e+01 1.000000e+01
      vertex   -4.200000e+00 6.180000e+01 2.400000e+00
    endloop
  endfacet
  facet normal 0.000000e+00 -1.000000e+00 0.000000e+00
    outer loop
      vertex   -4.200000e+00 6.180000e+01 2.400000e+00
      vertex   3.740000e+01 6.180000e+01 1.000000e+01
      vertex   -4.200000e+00 6.180000e+01 1.000000e+01
    endloop
  endfacet
  facet normal 0.000000e+00 -1.000000e+00 0.000000e+00
    outer loop
      vertex   -4.580000e+01 6.180000e+01 2.400000e+00
      vertex   -4.200000e+00 6.180000e+01 1.000000e+01
      vertex   -4.580000e+01 6.180000e+01 1.000000e+01
    endloop
  endfacet
  facet normal 0.000000e+00 -1.000000e+00 0.000000e+00
    outer loop
      vertex   -8.740000e+01 6.180000e+01 2.400000e+00
      vertex   -4.580000e+01 6.180000e+01 1.000000e+01
      vertex   -8.740000e+01 6.180000e+01 1.000000e+01
    endloop
  endfacet
  facet normal 0.000000e+00 -1.000000e+00 0.000000e+00
    outer loop
      vertex   -8.740000e+01 6.180000e+01 2.400000e+00
      vertex   -4.580000e+01 6.180000e+01 2.400000e+00
      vertex   -4.580000e+01 6.180000e+01 1.000000e+01
    endloop
  endfacet
  facet normal -0.000000e+00 -1.000000e+00 0.000000e+00
    outer loop
      vertex   -4.200000e+00 6.180000e+01 2.400000e+00
      vertex   -4.200000e+00 6.180000e+01 1.000000e+01
      vertex   -4.580000e+01 6.180000e+01 2.400000e+00
    endloop
  endfacet
  facet normal -1.000000e+00 0.000000e+00 0.000000e+00
    outer loop
      vertex   3.740000e+01 2.200000e+00 2.400000e+00
      vertex   3.740000e+01 2.200000e+00 1.000000e+01
      vertex   3.740000e+01 3.200000e+01 2.400000e+00
    endloop
  endfacet
  facet normal -1.000000e+00 0.000000e+00 0.000000e+00
    outer loop
      vertex   3.740000e+01 3.200000e+01 2.400000e+00
      vertex   3.740000e+01 2.200000e+00 1.000000e+01
      vertex   3.740000e+01 3.200000e+01 1.000000e+01
    endloop
  endfacet
  facet normal -1.000000e+00 0.000000e+00 0.000000e+00
    outer loop
      vertex   3.740000e+01 6.180000e+01 2.400000e+00
      vertex   3.740000e+01 3.200000e+01 1.000000e+01
      vertex   3.740000e+01 6.180000e+01 1.000000e+01
    endloop
  endfacet
  facet normal -1.000000e+00 0.000000e+00 0.000000e+00
    outer loop
      vertex   3.740000e+01 6.180000e+01 2.400000e+00
      vertex   3.740000e+01 3.200000e+01 2.400000e+00
      vertex   3.740000e+01 3.200000e+01 1.000000e+01
    endloop
  endfacet
  facet normal 0.000000e+00 -0.000000e+00 1.000000e+00
    outer loop
      vertex   3.740000e+01 2.200000e+00 2.400000e+00
      vertex   3.740000e+01 3.200000e+01 2.400000e+00
      vertex   -4.200000e+00 2.200000e+00 2.400000e+00
    endloop
  endfacet
  facet normal 0.000000e+00 -0.000000e+00 1.000000e+00
    outer loop
      vertex   -4.200000e+00 2.200000e+00 2.400000e+00
      vertex   3.740000e+01 3.200000e+01 2.400000e+00
      vertex   -4.200000e+00 6.180000e+01 2.400000e+00
    endloop
  endfacet
  facet normal -0.000000e+00 0.000000e+00 1.000000e+00
    outer loop
      vertex   -4.580000e+01 6.180000e+01 2.400000e+00
      vertex   -4.200000e+00 2.200000e+00 2.400000e+00
      vertex   -4.200000e+00 6.180000e+01 2.400000e+00
    endloop
  endfacet
  facet normal -0.000000e+00 0.000000e+00 1.000000e+00
    outer loop
      vertex   -4.580000e+01 6.180000e+01 2.400000e+00
      vertex   -4.580000e+01 2.200000e+00 2.400000e+00
      vertex   -4.200000e+00 2.200000e+00 2.400000e+00
    endloop
  endfacet
  facet normal 0.000000e+00 0.000000e+00 1.000000e+00
    outer loop
      vertex   -4.580000e+01 6.180000e+01 2.400000e+00
      vertex   -8.740000e+01 3.200000e+01 2.400000e+00
      vertex   -4.580000e+01 2.200000e+00 2.400000e+00
    endloop
  endfacet
  facet normal 0.000000e+00 0.000000e+00 1.000000e+00
    outer loop
      vertex   -4.580000e+01 6.180000e+01 2.400000e+00
      vertex   -8.740000e+01 6.180000e+01 2.400000e+00
      vertex   -8.740000e+01 3.200000e+01 2.400000e+00
    endloop
  endfacet
  facet normal 0.000000e+00 -0.000000e+00 1.000000e+00
    outer loop
      vertex   3.740000e+01 3.200000e+01 2.400000e+00
      vertex   3.740000e+01 6.180000e+01 2.400000e+00
      vertex   -4.200000e+00 6.180000e+01 2.400000e+00
    endloop
  endfacet
  facet normal -0.000000e+00 0.000000e+00 1.000000e+00
    outer loop
      vertex   -8.740000e+01 3.200000e+01 2.400000e+00
      vertex   -8.740000e+01 2.200000e+00 2.400000e+00
      vertex   -4.580000e+01 2.200000e+00 2.400000e+00
    endloop
  endfacet
  facet normal -0.000000e+00 1.000000e+00 0.000000e+00
    outer loop
      vertex   -8.740000e+01 2.200000e+00 2.400000e+00
      vertex   -8.740000e+01 2.200000e+00 1.000000e+01
      vertex   -4.580000e+01 2.200000e+00 2.400000e+00
    endloop
  endfacet
  facet normal 0.000000e+00 1.000000e+00 -0.000000e+00
    outer loop
      vertex   -4.580000e+01 2.200000e+00 2.400000e+00
      vertex   -8.740000e+01 2.200000e+00 1.000000e+01
      vertex   -4.580000e+01 2.200000e+00 1.000000e+01
    endloop
  endfacet
  facet normal 0.000000e+00 1.000000e+00 -0.000000e+00
    outer loop
      vertex   -4.200000e+00 2.200000e+00 2.400000e+00
      vertex   -4.580000e+01 2.200000e+00 1.000000e+01
      vertex   -4.200000e+00 2.200000e+00 1.000000e+01
    endloop
  endfacet
  facet normal 0.000000e+00 1.000000e+00 -0.000000e+00
    outer loop
      vertex   3.740000e+01 2.200000e+00 2.400000e+00
      vertex   -4.200000e+00 2.200000e+00 1.000000e+01
      vertex   3.740000e+01 2.200000e+00 1.000000e+01
    endloop
  endfacet
  facet normal 0.000000e+00 1.000000e+00 -0.000000e+00
    outer loop
      vertex   3.740000e+01 2.200000e+00 2.400000e+00
      vertex   -4.200000e+00 2.200000e+00 2.400000e+00
      vertex   -4.200000e+00 2.200000e+00 1.000000e+01
    endloop
  endfacet
  facet normal -0.000000e+00 1.000000e+00 0.000000e+00
    outer loop
      vertex   -4.580000e+01 2.200000e+00 2.400000e+00
      vertex   -4.580000e+01 2.200000e+00 1.000000e+01
      vertex   -4.200000e+00 2.200000e+00 2.400000e+00
    endloop
  endfacet
  facet normal 1.000000e+00 0.000000e+00 -0.000000e+00
    outer loop
      vertex   -8.740000e+01 6.180000e+01 2.400000e+00
      vertex   -8.740000e+01 6.180000e+01 1.000000e+01
      vertex   -8.740000e+01 3.200000e+01 2.400000e+00
    endloop
  endfacet
  facet normal 1.000000e+00 0.000000e+00 -0.000000e+00
    outer loop
      vertex   -8.740000e+01 3.200000e+01 2.400000e+00
      vertex   -8.740000e+01 6.180000e+01 1.000000e+01
      vertex   -8.740000e+01 3.200000e+01 1.000000e+01
    endloop
  endfacet
  facet normal 1.000000e+00 0.000000e+00 -0.000000e+00
    outer loop
      vertex   -8.740000e+01 2.200000e+00 2.400000e+00
      vertex   -8.740000e+01 3.200000e+01 1.000000e+01
      vertex   -8.740000e+01 2.200000e+00 1.000000e+01
    endloop
  endfacet
  facet normal 1.000000e+00 0.000000e+00 0.000000e+00
    outer loop
      vertex   -8.740000e+01 2.200000e+00 2.400000e+00
      vertex   -8.740000e+01 3.200000e+01 2.400000e+00
      vertex   -8.740000e+01 3.200000e+01 1.000000e+01
    endloop
  endfacet
  facet normal -0.000000e+00 0.000000e+00 1.000000e+00
    outer loop
      vertex   -4.200000e+00 2.200000e+00 1.000000e+01
      vertex   -3.533333e+00 2.000000e-01 1.000000e+01
      vertex   3.740000e+01 2.200000e+00 1.000000e+01
    endloop
  endfacet
  facet normal 0.000000e+00 0.000000e+00 1.000000e+00
    outer loop
      vertex   -4.200000e+00 2.200000e+00 1.000000e+01
      vertex   -4.580000e+01 2.200000e+00 1.000000e+01
      vertex   -3.533333e+00 2.000000e-01 1.000000e+01
    endloop
  endfacet
  facet normal 0.000000e+00 0.000000e+00 1.000000e+00
    outer loop
      vertex   -3.533333e+00 2.000000e-01 1.000000e+01
      vertex   -4.580000e+01 2.200000e+00 1.000000e+01
      vertex   -4.646667e+01 2.000000e-01 1.000000e+01
    endloop
  endfacet
  facet normal 0.000000e+00 -0.000000e+00 1.000000e+00
    outer loop
      vertex   -4.646667e+01 2.000000e-01 1.000000e+01
      vertex   -4.580000e+01 2.200000e+00 1.000000e+01
      vertex   -8.740000e+01 2.200000e+00 1.000000e+01
    endloop
  endfacet
  facet normal 0.000000e+00 -0.000000e+00 1.000000e+00
    outer loop
      vertex   -8.940000e+01 2.000000e-01 1.000000e+01
      vertex   -8.740000e+01 2.200000e+00 1.000000e+01
      vertex   -8.940000e+01 3.200000e+01 1.000000e+01
    endloop
  endfacet
  facet normal 0.000000e+00 -0.000000e+00 1.000000e+00
    outer loop
      vertex   -8.940000e+01 2.000000e-01 1.000000e+01
      vertex   -4.646667e+01 2.000000e-01 1.000000e+01
      vertex   -8.740000e+01 2.200000e+00 1.000000e+01
    endloop
  endfacet
  facet normal 0.000000e+00 -0.000000e+00 1.000000e+00
    outer loop
      vertex   -8.740000e+01 2.200000e+00 1.000000e+01
      vertex   -8.740000e+01 3.200000e+01 1.000000e+01
      vertex   -8.940000e+01 3.200000e+01 1.000000e+01
    endloop
  endfacet
  facet normal 0.000000e+00 0.000000e+00 1.000000e+00
    outer loop
      vertex   -8.940000e+01 3.200000e+01 1.000000e+01
      vertex   -8.740000e+01 3.200000e+01 1.000000e+01
      vertex   -8.740000e+01 6.180000e+01 1.000000e+01
    endloop
  endfacet
  facet normal -0.000000e+00 0.000000e+00 1.000000e+00
    outer loop
      vertex   -8.940000e+01 6.380000e+01 1.000000e+01
      vertex   -8.740000e+01 6.180000e+01 1.000000e+01
      vertex   -4.646667e+01 6.380000e+01 1.000000e+01
    endloop
  endfacet
  facet normal -0.000000e+00 0.000000e+00 1.000000e+00
    outer loop
      vertex   -8.940000e+01 6.380000e+01 1.000000e+01
      vertex   -8.940000e+01 3.200000e+01 1.000000e+01
      vertex   -8.740000e+01 6.180000e+01 1.000000e+01
    endloop
  endfacet
  facet normal 0.000000e+00 -0.000000e+00 1.000000e+00
    outer loop
      vertex   -8.740000e+01 6.180000e+01 1.000000e+01
      vertex   -4.580000e+01 6.180000e+01 1.000000e+01
      vertex   -4.646667e+01 6.380000e+01 1.000000e+01
    endloop
  endfacet
  facet normal -0.000000e+00 0.000000e+00 1.000000e+00
    outer loop
      vertex   -4.646667e+01 6.380000e+01 1.000000e+01
      vertex   -4.580000e+01 6.180000e+01 1.000000e+01
      vertex   -4.200000e+00 6.180000e+01 1.000000e+01
    endloop
  endfacet
  facet normal -0.000000e+00 0.000000e+00 1.000000e+00
    outer loop
      vertex   -3.533333e+00 6.380000e+01 1.000000e+01
      vertex   -4.200000e+00 6.180000e+01 1.000000e+01
      vertex   3.740000e+01 6.180000e+01 1.000000e+01
    endloop
  endfacet
  facet normal 0.000000e+00 0.000000e+00 1.000000e+00
    outer loop
      vertex   3.940000e+01 6.380000e+01 1.000000e+01
      vertex   3.740000e+01 6.180000e+01 1.000000e+01
      vertex   3.940000e+01 3.200000e+01 1.000000e+01
    endloop
  endfacet
  facet normal 0.000000e+00 0.000000e+00 1.000000e+00
    outer loop
      vertex   3.940000e+01 6.380000e+01 1.000000e+01
      vertex   -3.533333e+00 6.380000e+01 1.000000e+01
      vertex   3.740000e+01 6.180000e+01 1.000000e+01
    endloop
  endfacet
  facet normal -0.000000e+00 0.000000e+00 1.000000e+00
    outer loop
      vertex   -4.646667e+01 6.380000e+01 1.000000e+01
      vertex   -4.200000e+00 6.180000e+01 1.000000e+01
      vertex   -3.533333e+00 6.380000e+01 1.000000e+01
    endloop
  endfacet
  facet normal 0.000000e+00 0.000000e+00 1.000000e+00
    outer loop
      vertex   3.740000e+01 6.180000e+01 1.000000e+01
      vertex   3.740000e+01 3.200000e+01 1.000000e+01
      vertex   3.940000e+01 3.200000e+01 1.000000e+01
    endloop
  endfacet
  facet normal 0.000000e+00 0.000000e+00 1.000000e+00
    outer loop
      vertex   3.940000e+01 3.200000e+01 1.000000e+01
      vertex   3.740000e+01 3.200000e+01 1.000000e+01
      vertex   3.740000e+01 2.200000e+00 1.000000e+01
    endloop
  endfacet
  facet normal 0.000000e+00 0.000000e+00 1.000000e+00
    outer loop
      vertex   3.940000e+01 2.000000e-01 1.000000e+01
      vertex   3.740000e+01 2.200000e+00 1.000000e+01
      vertex   -3.533333e+00 2.000000e-01 1.000000e+01
    endloop
  endfacet
  facet normal 0.000000e+00 -0.000000e+00 1.000000e+00
    outer loop
      vertex   3.940000e+01 2.000000e-01 1.000000e+01
      vertex   3.940000e+01 3.200000e+01 1.000000e+01
      vertex   3.740000e+01 2.200000e+00 1.000000e+01
    endloop
  endfacet
  facet normal 0.000000e+00 -0.000000e+00 -1.000000e+00
    outer loop
      vertex   -3.533333e+00 6.380000e+01 0.000000e+00
      vertex   3.940000e+01 6.380000e+01 0.000000e+00
      vertex   -3.533333e+00 3.200000e+01 0.000000e+00
    endloop
  endfacet
  facet normal 0.000000e+00 -0.000000e+00 -1.000000e+00
    outer loop
      vertex   -4.646667e+01 3.200000e+01 0.000000e+00
      vertex   -3.533333e+00 3.200000e+01 0.000000e+00
      vertex   -4.646667e+01 2.000000e-01 0.000000e+00
    endloop
  endfacet
  facet normal 0.000000e+00 -0.000000e+00 -1.000000e+00
    outer loop
      vertex   -8.940000e+01 2.000000e-01 0.000000e+00
      vertex   -4.646667e+01 3.200000e+01 0.000000e+00
      vertex   -4.646667e+01 2.000000e-01 0.000000e+00
    endloop
  endfacet
  facet normal 0.000000e+00 0.000000e+00 -1.000000e+00
    outer loop
      vertex   -8.940000e+01 2.000000e-01 0.000000e+00
      vertex   -8.940000e+01 3.200000e+01 0.000000e+00
      vertex   -4.646667e+01 3.200000e+01 0.000000e+00
    endloop
  endfacet
  facet normal 0.000000e+00 0.000000e+00 -1.000000e+00
    outer loop
      vertex   -4.646667e+01 3.200000e+01 0.000000e+00
      vertex   -8.940000e+01 3.200000e+01 0.000000e+00
      vertex   -4.646667e+01 6.380000e+01 0.000000e+00
    endloop
  endfacet
  facet normal -0.000000e+00 0.000000e+00 -1.000000e+00
    outer loop
      vertex   -3.533333e+00 6.380000e+01 0.000000e+00
      vertex   -4.646667e+01 3.200000e+01 0.000000e+00
      vertex   -4.646667e+01 6.380000e+01 0.000000e+00
    endloop
  endfacet
  facet normal 0.000000e+00 -0.000000e+00 -1.000000e+00
    outer loop
      vertex   -3.533333e+00 6.380000e+01 0.000000e+00
      vertex   -3.533333e+00 3.200000e+01 0.000000e+00
      vertex   -4.646667e+01 3.200000e+01 0.000000e+00
    endloop
  endfacet
  facet normal 0.000000e+00 0.000000e+00 -1.000000e+00
    outer loop
      vertex   3.940000e+01 2.000000e-01 0.000000e+00
      vertex   -3.533333e+00 2.000000e-01 0.000000e+00
      vertex   3.940000e+01 3.200000e+01 0.000000e+00
    endloop
  endfacet
  facet normal -0.000000e+00 0.000000e+00 -1.000000e+00
    outer loop
      vertex   3.940000e+01 3.200000e+01 0.000000e+00
      vertex   -3.533333e+00 2.000000e-01 0.000000e+00
      vertex   -3.533333e+00 3.200000e+01 0.000000e+00
    endloop
  endfacet
  facet normal -0.000000e+00 -0.000000e+00 -1.000000e+00
    outer loop
      vertex   3.940000e+01 6.380000e+01 0.000000e+00
      vertex   3.940000e+01 3.200000e+01 0.000000e+00
      vertex   -3.533333e+00 3.200000e+01 0.000000e+00
    endloop
  endfacet
  facet normal 0.000000e+00 0.000000e+00 -1.000000e+00
    outer loop
      vertex   -3.533333e+00 2.000000e-01 0.000000e+00
      vertex   -4.646667e+01 2.000000e-01 0.000000e+00
      vertex   -3.533333e+00 3.200000e+01 0.000000e+00
    endloop
  endfacet
  facet normal 0.000000e+00 0.000000e+00 -1.000000e+00
    outer loop
      vertex   -8.940000e+01 3.200000e+01 0.000000e+00
      vertex   -8.940000e+01 6.380000e+01 0.000000e+00
      vertex   -4.646667e+01 6.380000e+01 0.000000e+00
    endloop
  endfacet
  facet normal 0.000000e+00 -1.000000e+00 0.000000e+00
    outer loop
      vertex   -8.940000e+01 2.000000e-01 1.000000e+01
      vertex   -8.940000e+01 2.000000e-01 0.000000e+00
      vertex   -4.646667e+01 2.000000e-01 1.000000e+01
    endloop
  endfacet
  facet normal 0.000000e+00 -1.000000e+00 -0.000000e+00
    outer loop
      vertex   -4.646667e+01 2.000000e-01 1.000000e+01
      vertex   -8.940000e+01 2.000000e-01 0.000000e+00
      vertex   -4.646667e+01 2.000000e-01 0.000000e+00
    endloop
  endfacet
  facet normal 0.000000e+00 -1.000000e+00 -0.000000e+00
    outer loop
      vertex   -3.533333e+00 2.000000e-01 1.000000e+01
      vertex   -4.646667e+01 2.000000e-01 0.000000e+00
      vertex   -3.533333e+00 2.000000e-01 0.000000e+00
    endloop
  endfacet
  facet normal 0.000000e+00 -1.000000e+00 -0.000000e+00
    outer loop
      vertex   3.940000e+01 2.000000e-01 1.000000e+01
      vertex   -3.533333e+00 2.000000e-01 0.000000e+00
      vertex   3.940000e+01 2.000000e-01 0.000000e+00
    endloop
  endfacet
  facet normal -0.000000e+00 -1.000000e+00 -0.000000e+00
    outer loop
      vertex   3.940000e+01 2.000000e-01 1.000000e+01
      vertex   -3.533333e+00 2.000000e-01 1.000000e+01
      vertex   -3.533333e+00 2.000000e-01 0.000000e+00
    endloop
  endfacet
  facet normal 0.000000e+00 -1.000000e+00 0.000000e+00
    outer loop
      vertex   -4.646667e+01 2.000000e-01 1.000000e+01
      vertex   -4.646667e+01 2.000000e-01 0.000000e+00
      vertex   -3.533333e+00 2.000000e-01 1.000000e+01
    endloop
  endfacet
  facet normal -1.000000e+00 -0.000000e+00 -0.000000e+00
    outer loop
      vertex   -8.940000e+01 6.380000e+01 1.000000e+01
      vertex   -8.940000e+01 6.380000e+01 0.000000e+00
      vertex   -8.940000e+01 3.200000e+01 1.000000e+01
    endloop
  endfacet
  facet normal -1.000000e+00 -0.000000e+00 -0.000000e+00
    outer loop
      vertex   -8.940000e+01 3.200000e+01 1.000000e+01
      vertex   -8.940000e+01 6.380000e+01 0.000000e+00
      vertex   -8.940000e+01 3.200000e+01 0.000000e+00
    endloop
  endfacet
  facet normal -1.000000e+00 -0.000000e+00 -0.000000e+00
    outer loop
      vertex   -8.940000e+01 2.000000e-01 1.000000e+01
      vertex   -8.940000e+01 3.200000e+01 0.000000e+00
      vertex   -8.940000e+01 2.000000e-01 0.000000e+00
    endloop
  endfacet
  facet normal -1.000000e+00 0.000000e+00 -0.000000e+00
    outer loop
      vertex   -8.940000e+01 2.000000e-01 1.000000e+01
      vertex   -8.940000e+01 3.200000e+01 1.000000e+01
      vertex   -8.940000e+01 3.200000e+01 0.000000e+00
    endloop
  endfacet
  facet normal 0.000000e+00 1.000000e+00 0.000000e+00
    outer loop
      vertex   3.940000e+01 6.380000e+01 1.000000e+01
      vertex   3.940000e+01 6.380000e+01 0.000000e+00
      vertex   -3.533333e+00 6.380000e+01 1.000000e+01
    endloop
  endfacet
  facet normal 0.000000e+00 1.000000e+00 0.000000e+00
    outer loop
      vertex   -3.533333e+00 6.380000e+01 1.000000e+01
      vertex   3.940000e+01 6.380000e+01 0.000000e+00
      vertex   -3.533333e+00 6.380000e+01 0.000000e+00
    endloop
  endfacet
  facet normal 0.000000e+00 1.000000e+00 0.000000e+00
    outer loop
      vertex   -4.646667e+01 6.380000e+01 1.000000e+01
      vertex   -3.533333e+00 6.380000e+01 0.000000e+00
      vertex   -4.646667e+01 6.380000e+01 0.000000e+00
    endloop
  endfacet
  facet normal 0.000000e+00 1.000000e+00 0.000000e+00
    outer loop
      vertex   -8.940000e+01 6.380000e+01 1.000000e+01
      vertex   -4.646667e+01 6.380000e+01 0.000000e+00
      vertex   -8.940000e+01 6.380000e+01 0.000000e+00
    endloop
  endfacet
  facet normal -0.000000e+00 1.000000e+00 0.000000e+00
    outer loop
      vertex   -8.940000e+01 6.380000e+01 1.000000e+01
      vertex   -4.646667e+01 6.380000e+01 1.000000e+01
      vertex   -4.646667e+01 6.380000e+01 0.000000e+00
    endloop
  endfacet
  facet normal 0.000000e+00 1.000000e+00 0.000000e+00
    outer loop
      vertex   -3.533333e+00 6.380000e+01 1.000000e+01
      vertex   -3.533333e+00 6.380000e+01 0.000000e+00
      vertex   -4.646667e+01 6.380000e+01 1.000000e+01
    endloop
  endfacet
  facet normal 1.000000e+00 -0.000000e+00 0.000000e+00
    outer loop
      vertex   3.940000e+01 2.000000e-01 1.000000e+01
      vertex   3.940000e+01 2.000000e-01 0.000000e+00
      vertex   3.940000e+01 3.200000e+01 1.000000e+01
    endloop
  endfacet
  facet normal 1.000000e+00 -0.000000e+00 0.000000e+00
    outer loop
      vertex   3.940000e+01 3.200000e+01 1.000000e+01
      vertex   3.940000e+01 2.000000e-01 0.000000e+00
      vertex   3.940000e+01 3.200000e+01 0.000000e+00
    endloop
  endfacet
  facet normal 1.000000e+00 -0.000000e+00 0.000000e+00
    outer loop
      vertex   3.940000e+01 6.380000e+01 1.000000e+01
      vertex   3.940000e+01 3.200000e+01 0.000000e+00
      vertex   3.940000e+01 6.380000e+01 0.000000e+00
    endloop
  endfacet
  facet normal 1.000000e+00 0.000000e+00 0.000000e+00
    outer loop
      vertex   3.940000e+01 6.380000e+01 1.000000e+01
      vertex   3.940000e+01 3.200000e+01 1.000000e+01
      vertex   3.940000e+01 3.200000e+01 0.000000e+00
    endloop
  endfacet
endsolid
